<svg width="215" height="118" viewBox="0 0 215 118" fill="none" xmlns="http://www.w3.org/2000/svg">
<path d="M87.4997 48.8801C92.4197 48.8801 96.2197 50.8601 99.2397 54.5101C99.7997 55.2201 99.6397 56.1801 98.8397 56.7301L95.1897 60.2201C94.4797 60.8501 93.7597 60.4601 93.2097 59.9801C91.9397 58.5501 89.9597 57.4401 87.7397 57.4401C83.4597 57.4401 79.9697 61.0901 79.9697 65.5301C79.9697 69.9701 83.3797 73.6201 87.6597 73.6201C91.0697 73.6201 92.5797 71.9501 93.9997 70.6101C94.5597 70.0501 95.3497 69.9001 95.9797 70.3701L99.3897 73.3001C100.18 73.9301 100.5 74.7301 99.9497 75.5201C97.2497 79.7201 93.0497 82.1801 87.4197 82.1801C78.4597 82.1801 70.6097 75.0401 70.6097 65.5201C70.6097 56.0001 78.6197 48.8601 87.4997 48.8601V48.8801Z" fill="white"/>
<path d="M104.2 28.1301C104.2 27.3401 104.91 26.6201 105.71 26.6201H112.45C113.24 26.6201 113.96 27.3301 113.96 28.1301V51.4901C115.55 50.3001 118.64 48.8701 122.37 48.8701C132.44 48.8701 136.57 56.6401 136.57 64.6501V79.8801C136.57 80.6701 135.86 81.3901 135.06 81.3901H128.64C127.77 81.3901 127.13 80.6801 127.13 79.8801V64.5701C127.13 60.2101 124.67 57.4301 120.86 57.4301C117.05 57.4301 114.75 59.8101 113.96 63.0601V79.8701C113.96 80.7401 113.48 81.3801 112.29 81.3801H105.71C104.92 81.3801 104.2 80.6701 104.2 79.8701V28.1301Z" fill="white"/>
<path d="M175.15 31.99C175.15 28.98 177.53 26.52 180.54 26.52C183.55 26.52 186.09 28.98 186.09 31.99C186.09 35 183.63 37.46 180.54 37.46C177.45 37.46 175.15 35 175.15 31.99ZM175.86 51.17C175.86 50.3 176.57 49.66 177.37 49.66H183.95C184.74 49.66 185.46 50.29 185.46 51.17V79.88C185.46 80.67 184.75 81.39 183.95 81.39H177.37C176.58 81.39 175.86 80.68 175.86 79.88V51.17Z" fill="white"/>
<path d="M159.25 28.1301C159.25 27.3401 159.96 26.6201 160.76 26.6201H167.42C168.21 26.6201 168.93 27.3301 168.93 28.1301V79.8801C168.93 80.6701 168.22 81.3901 167.42 81.3901H160.76C159.97 81.3901 159.25 80.6801 159.25 79.8801V28.1301Z" fill="white"/>
<path d="M142.14 40.46C142.14 37.45 144.52 34.99 147.53 34.99C150.54 34.99 153.08 37.45 153.08 40.46C153.08 43.47 150.62 45.93 147.53 45.93C144.44 45.93 142.14 43.47 142.14 40.46ZM142.85 51.18C142.85 50.31 143.56 49.67 144.36 49.67H150.94C151.73 49.67 152.45 50.3 152.45 51.18V79.89C152.45 80.68 151.74 81.4 150.94 81.4H144.36C143.57 81.4 142.85 80.69 142.85 79.89V51.18Z" fill="white"/>
<path d="M189.87 79.0899L201.13 58.3099V58.1499H192.09C191.3 58.1499 190.66 57.4399 190.66 56.6399V51.1699C190.66 50.2999 191.29 49.6599 192.09 49.6599H213.03C214.22 49.6599 215.01 50.7699 214.38 51.7999L202.88 72.7399V72.9799H211.45C212.32 72.9799 212.96 73.6099 212.96 74.4899V79.8799C212.96 80.6699 212.33 81.3899 211.45 81.3899H191.38C190.59 81.3899 189.87 80.6799 189.87 79.8799V79.0899Z" fill="white"/>
<path d="M3.09968 28.6001L19.7997 18.2901C21.2697 17.4601 21.2697 15.7401 20.2097 14.6901L6.25968 1.20006C5.98968 0.930059 5.53968 0.930059 5.26968 1.20006L3.94968 2.53006C2.25968 4.23006 2.26968 6.97006 3.96968 8.66006L9.41968 13.6901C10.3497 14.6101 10.1697 16.1501 9.05968 16.8401L2.54968 20.8301C0.519682 22.0801 -0.110318 24.7501 1.14968 26.7801L2.12968 28.3701C2.32968 28.7001 2.76968 28.8001 3.09968 28.6001Z" fill="white"/>
<path d="M19.2197 83.9C20.5897 77.97 18.9697 71.74 14.8697 67.23L4.31967 55.27C-1.55032 48.61 -0.100325 38.29 7.37967 33.51L24.6397 22.48C25.7497 21.77 27.2097 21.9 28.1797 22.79C34.4897 28.61 56.4597 49.59 55.4797 71.26C55.4797 71.26 55.5097 104.91 22.3697 117.5C17.4997 119.35 12.5697 114.9 13.8497 109.85C18.4297 91.71 19.2297 83.89 19.2297 83.89L19.2197 83.9ZM23.5397 32.09C20.8997 33.76 15.7897 37 11.4297 39.77C8.50968 41.62 7.91967 45.63 10.1797 48.25L21.2097 61C27.5297 67.95 30.0397 77.55 27.9197 86.71L26.0697 94.82C25.2697 98.34 29.4197 100.8 32.1597 98.44C43.7797 88.41 60.0697 64.3 26.0897 32.34C25.3997 31.69 24.3497 31.59 23.5397 32.1V32.09Z" fill="white"/>
</svg>
