<svg width="392" height="57" viewBox="0 0 392 57" fill="none" xmlns="http://www.w3.org/2000/svg">
<path d="M26.0315 22.7856C25.9318 21.945 25.5277 21.2924 24.8191 20.8278C24.1104 20.3633 23.2413 20.131 22.2115 20.131C21.4586 20.131 20.7998 20.2527 20.2351 20.496C19.676 20.7393 19.2386 21.0739 18.9231 21.4998C18.6131 21.9256 18.458 22.4095 18.458 22.9515C18.458 23.405 18.566 23.7949 18.7819 24.1212C19.0034 24.442 19.2857 24.7102 19.6289 24.9259C19.9722 25.136 20.332 25.3103 20.7085 25.4485C21.0849 25.5813 21.431 25.6891 21.7465 25.7721L23.4738 26.2366C23.9167 26.3527 24.4094 26.5131 24.9519 26.7178C25.5 26.9224 26.0232 27.2017 26.5214 27.5556C27.0252 27.904 27.4404 28.352 27.7671 28.8995C28.0937 29.447 28.257 30.119 28.257 30.9154C28.257 31.8334 28.0162 32.663 27.5345 33.4041C27.0584 34.1452 26.3609 34.7342 25.4419 35.1711C24.5284 35.608 23.4184 35.8264 22.1119 35.8264C20.8939 35.8264 19.8393 35.6301 18.948 35.2374C18.0622 34.8448 17.3647 34.2973 16.8553 33.5949C16.3515 32.8925 16.0664 32.0768 16 31.1477H18.1259C18.1812 31.7892 18.3971 32.3201 18.7736 32.7404C19.1556 33.1552 19.6372 33.4649 20.2185 33.6695C20.8054 33.8686 21.4365 33.9682 22.1119 33.9682C22.898 33.9682 23.6039 33.841 24.2295 33.5866C24.8551 33.3267 25.3505 32.9672 25.7159 32.5082C26.0813 32.0436 26.264 31.5016 26.264 30.8822C26.264 30.3181 26.1062 29.8591 25.7907 29.5051C25.4751 29.1512 25.0599 28.8636 24.545 28.6424C24.0302 28.4211 23.4738 28.2276 22.8759 28.0617L20.7832 27.4644C19.4546 27.0828 18.4027 26.538 17.6276 25.8301C16.8526 25.1222 16.465 24.1959 16.465 23.0511C16.465 22.0998 16.7225 21.2703 17.2373 20.5624C17.7577 19.8489 18.4553 19.2959 19.33 18.9032C20.2102 18.505 21.1929 18.3059 22.278 18.3059C23.3741 18.3059 24.3485 18.5023 25.2011 18.8949C26.0536 19.2821 26.729 19.813 27.2273 20.4877C27.7311 21.1624 27.9968 21.9284 28.0245 22.7856H26.0315Z" fill="#9CA3AF"/>
<path d="M36.7252 35.7932C35.4962 35.7932 34.436 35.5222 33.5447 34.9803C32.6589 34.4327 31.9752 33.6695 31.4936 32.6907C31.0175 31.7062 30.7794 30.5614 30.7794 29.2562C30.7794 27.9511 31.0175 26.8007 31.4936 25.8052C31.9752 24.8042 32.6451 24.0244 33.5032 23.4658C34.3668 22.9017 35.3744 22.6197 36.5259 22.6197C37.1903 22.6197 37.8463 22.7303 38.494 22.9515C39.1418 23.1727 39.7314 23.5322 40.2628 24.03C40.7943 24.5222 41.2178 25.1748 41.5334 25.9877C41.8489 26.8007 42.0067 27.8017 42.0067 28.9908V29.8203H32.1745V28.128H40.0137C40.0137 27.4091 39.8698 26.7675 39.5819 26.2034C39.2995 25.6393 38.8954 25.1941 38.3695 24.8678C37.8491 24.5415 37.2346 24.3784 36.5259 24.3784C35.7453 24.3784 35.0699 24.5719 34.4997 24.9591C33.935 25.3407 33.5004 25.8384 33.1959 26.4523C32.8915 27.0662 32.7392 27.7243 32.7392 28.4267V29.5549C32.7392 30.5172 32.9053 31.3329 33.2375 32.0021C33.5752 32.6658 34.043 33.1718 34.6409 33.5202C35.2388 33.8631 35.9336 34.0346 36.7252 34.0346C37.2401 34.0346 37.7051 33.9627 38.1203 33.8189C38.5411 33.6695 38.9037 33.4483 39.2082 33.1552C39.5127 32.8566 39.748 32.486 39.914 32.0436L41.8074 32.5745C41.6081 33.216 41.2732 33.7802 40.8026 34.2668C40.332 34.748 39.7507 35.1241 39.0587 35.395C38.3667 35.6605 37.5889 35.7932 36.7252 35.7932Z" fill="#9CA3AF"/>
<path d="M46.9477 18.5382V35.5278H44.9879V18.5382H46.9477Z" fill="#9CA3AF"/>
<path d="M56.2173 22.7856V24.4447H49.3414V22.7856H56.2173ZM51.4008 35.5278V21.0269C51.4008 20.2969 51.5725 19.6885 51.9157 19.2019C52.2589 18.7152 52.7046 18.3502 53.2527 18.1068C53.8008 17.8635 54.3793 17.7418 54.9883 17.7418C55.4699 17.7418 55.863 17.7805 56.1675 17.858C56.4719 17.9354 56.6989 18.0073 56.8484 18.0737L56.2837 19.766C56.1841 19.7328 56.0457 19.6913 55.8685 19.6415C55.6969 19.5918 55.4699 19.5669 55.1876 19.5669C54.5398 19.5669 54.072 19.73 53.7841 20.0563C53.5018 20.3826 53.3606 20.861 53.3606 21.4915V35.5278H51.4008Z" fill="#9CA3AF"/>
<path d="M65.6093 27.3316V29.1567H58.1688V27.3316H65.6093Z" fill="#9CA3AF"/>
<path d="M74.2395 35.7932C73.0437 35.7932 72.014 35.5112 71.1503 34.9471C70.2867 34.383 69.6223 33.6059 69.1573 32.616C68.6923 31.626 68.4598 30.4951 68.4598 29.2231C68.4598 27.9289 68.6978 26.7869 69.1739 25.7969C69.6556 24.8015 70.3254 24.0244 71.1835 23.4658C72.0472 22.9017 73.0548 22.6197 74.2063 22.6197C75.1031 22.6197 75.9114 22.7856 76.6311 23.1174C77.3508 23.4493 77.9404 23.9138 78.3999 24.5111C78.8594 25.1084 79.1445 25.8052 79.2552 26.6016H77.2954C77.146 26.0209 76.8138 25.5066 76.2989 25.0586C75.7896 24.6051 75.1031 24.3784 74.2395 24.3784C73.4755 24.3784 72.8056 24.5775 72.2299 24.9757C71.6596 25.3683 71.214 25.9241 70.8929 26.6431C70.5773 27.3565 70.4196 28.1944 70.4196 29.1567C70.4196 30.1411 70.5746 30.9983 70.8846 31.7284C71.2001 32.4584 71.643 33.0252 72.2133 33.429C72.789 33.8327 73.4644 34.0346 74.2395 34.0346C74.7488 34.0346 75.2111 33.9461 75.6263 33.7691C76.0415 33.5921 76.393 33.3377 76.6809 33.0059C76.9688 32.6741 77.1736 32.2759 77.2954 31.8113H79.2552C79.1445 32.5635 78.8705 33.2409 78.4331 33.8438C78.0013 34.441 77.4283 34.9167 76.7141 35.2706C76.0055 35.619 75.1806 35.7932 74.2395 35.7932Z" fill="#9CA3AF"/>
<path d="M90.1587 30.3181V22.7856H92.1184V35.5278H90.1587V33.3709H90.0258C89.7268 34.018 89.2618 34.5682 88.6307 35.0217C87.9996 35.4697 87.2024 35.6937 86.2391 35.6937C85.4419 35.6937 84.7332 35.5195 84.1132 35.1711C83.4931 34.8171 83.006 34.2862 82.6516 33.5783C82.2973 32.8649 82.1202 31.9662 82.1202 30.8822V22.7856H84.08V30.7495C84.08 31.6786 84.3402 32.4197 84.8606 32.9727C85.3865 33.5258 86.0564 33.8023 86.8702 33.8023C87.3574 33.8023 87.8528 33.6778 88.3566 33.429C88.866 33.1801 89.2922 32.7985 89.6355 32.2842C89.9843 31.7698 90.1587 31.1145 90.1587 30.3181Z" fill="#9CA3AF"/>
<path d="M104.743 25.6393L102.982 26.1371C102.872 25.8439 102.708 25.5591 102.492 25.2826C102.282 25.0006 101.994 24.7683 101.629 24.5858C101.263 24.4033 100.796 24.312 100.225 24.312C99.4448 24.312 98.7943 24.4918 98.2739 24.8512C97.7591 25.2052 97.5016 25.6559 97.5016 26.2034C97.5016 26.6901 97.6788 27.0745 98.0331 27.3565C98.3874 27.6386 98.941 27.8736 99.694 28.0617L101.587 28.5262C102.728 28.8027 103.578 29.2258 104.137 29.7955C104.696 30.3596 104.975 31.0868 104.975 31.9772C104.975 32.7072 104.765 33.3598 104.344 33.935C103.929 34.5102 103.348 34.9637 102.6 35.2955C101.853 35.6273 100.984 35.7932 99.9929 35.7932C98.6919 35.7932 97.6151 35.5112 96.7626 34.9471C95.91 34.383 95.3702 33.5589 95.1432 32.475L97.0034 32.0104C97.1806 32.6962 97.5155 33.2105 98.0082 33.5534C98.5065 33.8963 99.1569 34.0677 99.9597 34.0677C100.873 34.0677 101.598 33.8742 102.135 33.487C102.678 33.0944 102.949 32.6243 102.949 32.0768C102.949 31.6343 102.794 31.2638 102.484 30.9652C102.174 30.661 101.698 30.4342 101.056 30.2849L98.93 29.7872C97.7618 29.5106 96.9037 29.082 96.3557 28.5013C95.8131 27.9151 95.5419 27.1823 95.5419 26.303C95.5419 25.584 95.7439 24.948 96.1481 24.395C96.5577 23.8419 97.1141 23.4078 97.8172 23.0925C98.5258 22.7773 99.3286 22.6197 100.225 22.6197C101.488 22.6197 102.479 22.8962 103.198 23.4493C103.924 24.0023 104.438 24.7323 104.743 25.6393Z" fill="#9CA3AF"/>
<path d="M113.473 22.7856V24.4447H106.863V22.7856H113.473ZM108.789 19.7328H110.749V31.8777C110.749 32.4307 110.829 32.8455 110.99 33.122C111.156 33.393 111.366 33.5755 111.621 33.6695C111.881 33.758 112.155 33.8023 112.443 33.8023C112.659 33.8023 112.836 33.7912 112.974 33.7691C113.113 33.7414 113.224 33.7193 113.307 33.7027L113.705 35.4614C113.572 35.5112 113.387 35.561 113.149 35.6107C112.911 35.666 112.609 35.6937 112.244 35.6937C111.69 35.6937 111.148 35.5748 110.616 35.337C110.09 35.0992 109.653 34.7369 109.304 34.2502C108.961 33.7636 108.789 33.1497 108.789 32.4086V19.7328Z" fill="#9CA3AF"/>
<path d="M121.466 35.7932C120.314 35.7932 119.304 35.5195 118.434 34.972C117.571 34.4245 116.895 33.6585 116.408 32.6741C115.927 31.6896 115.686 30.5393 115.686 29.2231C115.686 27.8957 115.927 26.7371 116.408 25.7472C116.895 24.7572 117.571 23.9885 118.434 23.441C119.304 22.8934 120.314 22.6197 121.466 22.6197C122.617 22.6197 123.625 22.8934 124.488 23.441C125.357 23.9885 126.033 24.7572 126.514 25.7472C127.002 26.7371 127.245 27.8957 127.245 29.2231C127.245 30.5393 127.002 31.6896 126.514 32.6741C126.033 33.6585 125.357 34.4245 124.488 34.972C123.625 35.5195 122.617 35.7932 121.466 35.7932ZM121.466 34.0346C122.34 34.0346 123.06 33.8106 123.625 33.3626C124.189 32.9146 124.607 32.3256 124.879 31.5956C125.15 30.8656 125.285 30.0747 125.285 29.2231C125.285 28.3714 125.15 27.5777 124.879 26.8422C124.607 26.1066 124.189 25.5121 123.625 25.0586C123.06 24.6051 122.34 24.3784 121.466 24.3784C120.591 24.3784 119.871 24.6051 119.306 25.0586C118.742 25.5121 118.324 26.1066 118.052 26.8422C117.781 27.5777 117.646 28.3714 117.646 29.2231C117.646 30.0747 117.781 30.8656 118.052 31.5956C118.324 32.3256 118.742 32.9146 119.306 33.3626C119.871 33.8106 120.591 34.0346 121.466 34.0346Z" fill="#9CA3AF"/>
<path d="M135.053 35.7932C133.99 35.7932 133.052 35.525 132.238 34.9886C131.424 34.4466 130.788 33.6834 130.328 32.699C129.869 31.709 129.639 30.5393 129.639 29.1899C129.639 27.8515 129.869 26.6901 130.328 25.7057C130.788 24.7213 131.427 23.9608 132.246 23.4244C133.066 22.8879 134.012 22.6197 135.086 22.6197C135.917 22.6197 136.573 22.758 137.055 23.0345C137.542 23.3055 137.913 23.6152 138.167 23.9636C138.428 24.3065 138.63 24.5885 138.774 24.8098H138.94V18.5382H140.899V35.5278H139.006V33.57H138.774C138.63 33.8023 138.425 34.0954 138.159 34.4493C137.893 34.7978 137.514 35.1102 137.021 35.3868C136.529 35.6577 135.873 35.7932 135.053 35.7932ZM135.319 34.0346C136.105 34.0346 136.769 33.8299 137.312 33.4207C137.855 33.0059 138.267 32.4335 138.549 31.7035C138.832 30.9679 138.973 30.119 138.973 29.1567C138.973 28.2055 138.834 27.3731 138.558 26.6597C138.281 25.9407 137.871 25.3822 137.329 24.984C136.786 24.5802 136.116 24.3784 135.319 24.3784C134.489 24.3784 133.797 24.5913 133.243 25.0171C132.695 25.4375 132.282 26.0099 132.006 26.7343C131.734 27.4533 131.599 28.2608 131.599 29.1567C131.599 30.0637 131.737 30.8877 132.014 31.6288C132.296 32.3644 132.711 32.9506 133.26 33.3875C133.813 33.8189 134.5 34.0346 135.319 34.0346Z" fill="#9CA3AF"/>
<path d="M146.023 40.3061C145.691 40.3061 145.395 40.2784 145.135 40.2231C144.874 40.1734 144.694 40.1236 144.595 40.0738L145.093 38.3483C145.569 38.47 145.99 38.5142 146.355 38.481C146.721 38.4479 147.045 38.2847 147.327 37.9916C147.615 37.704 147.878 37.2367 148.116 36.5896L148.481 35.5941L143.764 22.7856H145.89L149.411 32.9395H149.544L153.065 22.7856H155.191L149.777 37.386C149.533 38.0441 149.231 38.5889 148.871 39.0203C148.512 39.4572 148.094 39.7807 147.618 39.9909C147.147 40.201 146.616 40.3061 146.023 40.3061Z" fill="#9CA3AF"/>
<path d="M174.785 22.7856L170.068 35.5278H168.075L163.358 22.7856H165.484L169.005 32.9395H169.138L172.659 22.7856H174.785Z" fill="#9CA3AF"/>
<path d="M177.372 35.5278V22.7856H179.331V35.5278H177.372ZM178.368 20.6619C177.986 20.6619 177.657 20.5319 177.38 20.272C177.109 20.0121 176.973 19.6996 176.973 19.3346C176.973 18.9696 177.109 18.6571 177.38 18.3972C177.657 18.1373 177.986 18.0073 178.368 18.0073C178.75 18.0073 179.077 18.1373 179.348 18.3972C179.625 18.6571 179.763 18.9696 179.763 19.3346C179.763 19.6996 179.625 20.0121 179.348 20.272C179.077 20.5319 178.75 20.6619 178.368 20.6619Z" fill="#9CA3AF"/>
<path d="M186.674 35.8264C185.866 35.8264 185.133 35.6743 184.474 35.3702C183.815 35.0605 183.292 34.6153 182.904 34.0346C182.517 33.4483 182.323 32.7404 182.323 31.9109C182.323 31.1808 182.467 30.5891 182.755 30.1356C183.043 29.6766 183.427 29.3171 183.909 29.0571C184.391 28.7972 184.922 28.6036 185.503 28.4764C186.09 28.3437 186.68 28.2386 187.272 28.1612C188.047 28.0617 188.676 27.987 189.157 27.9372C189.644 27.8819 189.999 27.7907 190.22 27.6635C190.447 27.5363 190.561 27.315 190.561 26.9998V26.9334C190.561 26.1149 190.336 25.4789 189.888 25.0254C189.445 24.5719 188.773 24.3452 187.87 24.3452C186.935 24.3452 186.201 24.5498 185.67 24.9591C185.138 25.3683 184.764 25.8052 184.548 26.2698L182.688 25.6061C183.02 24.8319 183.463 24.2291 184.017 23.7977C184.576 23.3608 185.185 23.0566 185.844 22.8852C186.508 22.7082 187.162 22.6197 187.804 22.6197C188.213 22.6197 188.684 22.6695 189.215 22.769C189.752 22.863 190.27 23.0594 190.768 23.358C191.272 23.6567 191.69 24.1074 192.022 24.7102C192.354 25.313 192.52 26.1205 192.52 27.1325V35.5278H190.561V33.8023H190.461C190.328 34.0788 190.107 34.3747 189.797 34.6899C189.487 35.0051 189.074 35.2734 188.559 35.4946C188.045 35.7158 187.416 35.8264 186.674 35.8264ZM186.973 34.0677C187.748 34.0677 188.402 33.9157 188.933 33.6115C189.47 33.3073 189.874 32.9146 190.145 32.4335C190.422 31.9523 190.561 31.4463 190.561 30.9154V29.1235C190.478 29.2231 190.295 29.3143 190.013 29.3973C189.736 29.4747 189.415 29.5438 189.049 29.6047C188.689 29.66 188.338 29.7097 187.995 29.754C187.657 29.7927 187.383 29.8259 187.173 29.8535C186.663 29.9199 186.187 30.0277 185.744 30.1771C185.307 30.3209 184.953 30.5393 184.681 30.8324C184.416 31.12 184.283 31.5127 184.283 32.0104C184.283 32.6907 184.535 33.205 185.038 33.5534C185.548 33.8963 186.193 34.0677 186.973 34.0677Z" fill="#9CA3AF"/>
<path fill-rule="evenodd" clip-rule="evenodd" d="M293.051 38.9508C291.944 38.9508 290.93 38.7105 290.007 38.2297C289.486 37.9523 289.034 37.6227 288.65 37.2409C288.408 36.9996 287.916 37.1634 287.916 37.5089V38.0248C287.916 38.2592 287.73 38.4492 287.5 38.4492H285.503C285.273 38.4492 285.087 38.2592 285.087 38.0248V16.4244C285.087 16.19 285.273 16 285.503 16H287.49C287.72 16 287.907 16.19 287.907 16.4244V24.0269C287.907 24.3725 288.399 24.5372 288.643 24.2967C289.03 23.9141 289.486 23.584 290.007 23.3061C290.93 22.8254 291.944 22.585 293.051 22.585C295.04 22.585 296.721 23.3793 298.094 24.9678C299.509 26.5772 300.216 28.5106 300.216 30.7679C300.216 33.0462 299.509 34.9796 298.094 36.5681C296.721 38.1566 295.04 38.9508 293.051 38.9508ZM292.59 36.3172C293.943 36.3172 295.081 35.7947 296.003 34.7496C296.926 33.7255 297.387 32.3982 297.387 30.7679C297.387 29.1585 296.926 27.8313 296.003 26.7862C295.081 25.7412 293.943 25.2186 292.59 25.2186C291.217 25.2186 290.068 25.7412 289.146 26.7862C288.244 27.8313 287.793 29.1585 287.793 30.7679C287.793 32.3982 288.244 33.7359 289.146 34.781C290.068 35.8052 291.217 36.3172 292.59 36.3172ZM275.366 38.9508C273.152 38.9508 271.327 38.1775 269.892 36.6308C268.457 35.0841 267.739 33.1298 267.739 30.7679C267.739 28.427 268.436 26.4831 269.831 24.9364C271.225 23.3688 273.008 22.585 275.181 22.585C277.416 22.585 279.189 23.327 280.501 24.811C281.915 26.3635 282.591 28.6985 282.502 30.8222C282.491 31.0945 282.265 31.3009 281.998 31.3009H271.138C270.86 31.3009 270.634 31.5357 270.663 31.818C270.793 33.086 271.274 34.1259 272.106 34.9377C273.049 35.8574 274.177 36.3172 275.489 36.3172C277.163 36.3172 278.501 35.5255 279.504 33.942C279.638 33.7303 279.905 33.6443 280.127 33.7548L281.818 34.5955C282.056 34.714 282.152 35.0113 282.014 35.242C281.36 36.3343 280.497 37.2048 279.425 37.8535C278.236 38.585 276.883 38.9508 275.366 38.9508ZM271.009 28.3127C270.909 28.6186 271.145 28.9182 271.461 28.9182H278.952C279.24 28.9182 279.47 28.6665 279.412 28.3787C279.244 27.5523 278.838 26.8543 278.195 26.2846C277.436 25.5739 276.411 25.2186 275.12 25.2186C274.054 25.2186 273.131 25.553 272.352 26.2219C271.735 26.7664 271.287 27.4634 271.009 28.3127ZM266.872 23.676C266.964 23.3848 266.751 23.0867 266.451 23.0867H264.499C264.303 23.0867 264.13 23.2184 264.075 23.4102L261.195 33.3768C261.079 33.7766 260.527 33.7849 260.4 33.3888L257.195 23.3974C257.136 23.2121 256.966 23.0867 256.775 23.0867H254.494C254.303 23.0867 254.134 23.2115 254.074 23.3964L250.84 33.3954C250.712 33.7907 250.161 33.7817 250.046 33.3825L247.164 23.4102C247.109 23.2184 246.936 23.0867 246.74 23.0867H244.726C244.426 23.0867 244.213 23.3848 244.305 23.676L248.878 38.1366C248.937 38.3229 249.107 38.4492 249.299 38.4492H251.515C251.707 38.4492 251.877 38.3228 251.936 38.1364L255.163 27.911C255.287 27.519 255.831 27.5183 255.955 27.91L259.21 38.1374C259.269 38.3233 259.439 38.4492 259.631 38.4492H261.878C262.07 38.4492 262.24 38.3229 262.299 38.1366L266.872 23.676ZM354.524 37.54C355.344 38.3133 356.369 38.7 357.599 38.7C358.413 38.7 359.143 38.607 359.788 38.4211C360.009 38.3577 360.12 38.1149 360.044 37.8949L359.44 36.1543C359.359 35.921 359.1 35.8083 358.869 35.8829C358.806 35.9032 358.742 35.9226 358.675 35.941C358.47 35.9828 358.255 36.0037 358.029 36.0037C357.537 36.0037 357.097 35.8261 356.707 35.4707C356.318 35.0945 356.123 34.3943 356.123 33.3702V26.1446C356.123 25.9103 356.309 25.7203 356.539 25.7203H359.397C359.627 25.7203 359.813 25.5302 359.813 25.2959V23.5111C359.813 23.2767 359.627 23.0867 359.397 23.0867H356.539C356.309 23.0867 356.123 22.8967 356.123 22.6623V16.4244C356.123 16.19 355.937 16 355.707 16H353.71C353.48 16 353.294 16.19 353.294 16.4244V22.6623C353.294 22.8967 353.107 23.0867 352.878 23.0867H351.065C350.836 23.0867 350.649 23.2767 350.649 23.5111V25.2959C350.649 25.5302 350.836 25.7203 351.065 25.7203H352.878C353.107 25.7203 353.294 25.9103 353.294 26.1446V34.3107C353.314 35.6902 353.724 36.7666 354.524 37.54ZM314.121 37.0697C315.494 35.8156 316.181 34.248 316.181 32.3669C316.181 31.2173 315.863 30.1827 315.228 29.263C314.935 28.8258 314.515 28.2699 313.283 27.5655C313.023 27.4167 313.016 27.0202 313.262 26.8482C314.737 25.8179 315.474 24.2579 315.474 22.4283C315.474 20.6935 314.849 19.2826 313.598 18.1958C312.327 17.0671 310.759 16.5027 308.893 16.5027C307.397 16.5027 306.095 16.9103 304.988 17.7255C304.001 18.4518 303.267 19.3773 302.786 20.502C302.686 20.735 302.8 21.0012 303.03 21.1004L304.778 21.8552C305.026 21.9621 305.309 21.8336 305.42 21.584C306.108 20.0358 307.266 19.2617 308.893 19.2617C310 19.2617 310.892 19.5543 311.569 20.1396C312.245 20.7248 312.583 21.4877 312.583 22.4283C312.583 23.4525 312.225 24.2885 311.507 24.9364C310.79 25.5635 309.867 25.877 308.74 25.877H307.609C307.35 25.877 307.14 26.0908 307.14 26.3545V28.0958C307.14 28.3595 307.35 28.5733 307.609 28.5733H308.955C310.144 28.5733 311.159 28.9391 311.999 29.6706C312.86 30.4022 313.291 31.3009 313.291 32.3669C313.291 33.4329 312.881 34.3421 312.061 35.0945C311.22 35.8261 310.226 36.1918 309.078 36.1918C308.032 36.1918 307.13 35.8783 306.372 35.2513C305.744 34.6997 305.264 33.9514 304.933 33.0061C304.838 32.7362 304.544 32.5894 304.285 32.6996L302.574 33.4262C302.355 33.5194 302.237 33.7659 302.314 33.995C302.792 35.4198 303.622 36.591 304.803 37.5086C306.074 38.4701 307.499 38.9508 309.078 38.9508C311.087 38.9508 312.768 38.3238 314.121 37.0697ZM321.201 33.7464C321.201 32.9103 321.58 32.2101 322.339 31.6458C323.118 31.0815 324.082 30.7993 325.23 30.7993C326.702 30.7993 327.872 31.1086 328.738 31.7273C328.855 31.811 328.921 31.9505 328.914 32.0963C328.857 33.2121 328.388 34.1906 327.505 35.0318C326.583 35.9306 325.527 36.3799 324.338 36.3799C323.497 36.3799 322.759 36.1291 322.124 35.6275C321.509 35.1259 321.201 34.4988 321.201 33.7464ZM329.811 24.3094C328.602 23.1598 326.952 22.585 324.861 22.585C322.34 22.585 320.397 23.4691 319.032 25.2373C318.885 25.4277 318.94 25.7029 319.141 25.8319L320.926 26.9773C321.114 27.0984 321.361 27.0451 321.501 26.8677C322.396 25.7265 323.568 25.1559 325.014 25.1559C326.06 25.1559 326.972 25.5112 327.751 26.2219C328.535 26.916 328.812 27.7503 328.892 28.6926C328.92 29.0165 328.573 29.2259 328.278 29.1007C327.305 28.6864 326.135 28.4792 324.768 28.4792C322.8 28.4792 321.222 28.9495 320.033 29.8901C318.864 30.8306 318.28 32.0952 318.28 33.6837C318.28 35.1886 318.833 36.4427 319.94 37.4459C321.068 38.4492 322.462 38.9508 324.123 38.9508C326.07 38.9508 327.628 38.073 328.797 36.3172V38.0248C328.797 38.2592 328.983 38.4492 329.213 38.4492H331.209C331.439 38.4492 331.626 38.2592 331.626 38.0248V28.9809C331.626 26.9952 331.021 25.4381 329.811 24.3094ZM348.039 37.9983C348.039 38.2473 347.841 38.4492 347.597 38.4492H345.652C345.408 38.4492 345.21 38.2473 345.21 37.9983V37.4946C345.21 37.1697 344.728 37.0139 344.501 37.2418C344.144 37.5997 343.715 37.9185 343.211 38.1984C342.33 38.7 341.407 38.9508 340.444 38.9508C338.599 38.9508 337.174 38.4178 336.17 37.3519C335.186 36.265 334.694 34.7287 334.694 32.7431V23.5376C334.694 23.2886 334.892 23.0867 335.136 23.0867H337.08C337.325 23.0867 337.523 23.2886 337.523 23.5376V32.555C337.584 35.0632 338.824 36.3172 341.243 36.3172C342.371 36.3172 343.314 35.8574 344.072 34.9378C344.831 33.9972 345.21 32.879 345.21 31.5831V23.5376C345.21 23.2886 345.408 23.0867 345.652 23.0867H347.597C347.841 23.0867 348.039 23.2886 348.039 23.5376V37.9983ZM362.654 16.4244C362.654 16.19 362.841 16 363.07 16H365.067C365.297 16 365.483 16.19 365.483 16.4244V24.0413C365.483 24.3662 365.964 24.5206 366.189 24.2912C366.54 23.9345 366.961 23.6166 367.451 23.3375C368.353 22.8359 369.286 22.585 370.25 22.585C372.095 22.585 373.509 23.1285 374.493 24.2154C375.498 25.2813 376 26.8071 376 28.7928V38.0248C376 38.2592 375.814 38.4492 375.584 38.4492H373.587C373.357 38.4492 373.171 38.2592 373.171 38.0248V29.3571C373.171 26.5981 371.972 25.2186 369.573 25.2186C368.425 25.2186 367.451 25.7098 366.652 26.6922C365.873 27.6536 365.483 28.7823 365.483 30.0782V38.0248C365.483 38.2592 365.297 38.4492 365.067 38.4492H363.07C362.841 38.4492 362.654 38.2592 362.654 38.0248V16.4244Z" fill="#9CA3AF"/>
<path d="M233.186 36.014C233.35 36.6511 234.222 36.6511 234.387 36.014L239.128 17.6737C239.346 16.8293 238.732 16 237.889 16H234.966C234.385 16 233.877 16.4042 233.727 16.9855L231.054 27.3278C231.017 27.4713 231.017 27.6224 231.054 27.7658L233.186 36.014Z" fill="#9CA3AF"/>
<path d="M216.618 27.3144C216.655 27.4579 216.655 27.6089 216.618 27.7524L214.486 36.0006C214.322 36.6377 213.45 36.6377 213.285 36.0006L208.548 17.6737C208.33 16.8293 208.944 16 209.787 16H212.71C213.29 16 213.798 16.4042 213.949 16.9855L216.618 27.3144Z" fill="#9CA3AF"/>
<path d="M220.614 40.0454C220.469 40.6085 219.979 41 219.418 41H216.427C215.613 41 215.02 40.1967 215.231 39.3788L220.986 17.0441C221.145 16.4282 221.682 16 222.295 16H225.774C226.387 16 226.924 16.4282 227.082 17.0441L232.838 39.3788C233.049 40.1967 232.456 41 231.642 41H228.651C228.09 41 227.599 40.6085 227.454 40.0454L224.614 29.0239C224.455 28.4074 223.614 28.4074 223.455 29.0239L220.614 40.0454Z" fill="#9CA3AF"/>
<path d="M222.984 37.7213C222.77 37.7213 222.614 37.5211 222.669 37.3172L223.72 33.4511C223.806 33.1338 224.263 33.1338 224.349 33.4511L225.399 37.3172C225.455 37.5211 225.299 37.7213 225.085 37.7213H222.984Z" fill="#9CA3AF"/>
</svg>
